<svg width="687" height="338" viewBox="0 0 687 338" fill="none" xmlns="http://www.w3.org/2000/svg">
<g clip-path="url(#clip0_273_115)">
<path d="M407.834 99.6916L407.113 99.6513C403.68 99.4565 400.553 101.622 399.528 104.904C398.503 108.186 399.841 111.744 402.774 113.538L407.834 116.631L407.834 131.091C407.834 135.515 409.047 139.03 411.471 141.635C413.895 144.242 417.076 145.545 421.016 145.545C423.44 145.545 425.789 144.954 428.062 143.772C430.334 142.59 432.198 140.833 433.652 138.5C434.55 137.071 435.174 135.424 435.529 133.562L452.333 143.836L452.334 159L436.38 159.001L436.38 146.591L435.652 146.591C434.077 150.5 431.486 153.697 427.88 156.182C424.304 158.667 419.895 159.909 414.652 159.909C410.077 159.909 406.031 158.894 402.516 156.864C399.031 154.803 396.304 151.818 394.334 147.909C392.364 143.97 391.38 139.211 391.38 133.636L391.38 89.1821L407.834 89.1821L407.834 99.6916ZM452.334 126.255L436.081 116.319L452.333 117.24L452.334 126.255ZM452.334 102.216L435.88 101.283L435.88 89.182L452.334 89.182L452.334 102.216Z" fill="white"/>
<path d="M310.72 158V147.5L358.447 79.0455H310.447V64.9092H379.356V75.4092L331.674 143.864H379.629V158H310.72Z" fill="white"/>
<path d="M242.684 159.364C235.684 159.364 229.638 157.909 224.547 155C219.487 152.061 215.593 147.909 212.865 142.546C210.138 137.152 208.775 130.803 208.775 123.5C208.775 116.318 210.138 110.015 212.865 104.591C215.623 99.1366 219.472 94.8942 224.411 91.8639C229.35 88.8033 235.153 87.2729 241.82 87.2729C246.123 87.2729 250.184 87.9699 254.002 89.3639C257.85 90.7275 261.244 92.8487 264.184 95.7275C267.153 98.6063 269.487 102.273 271.184 106.727C272.881 111.152 273.729 116.424 273.729 122.546V127.591H216.502V116.5H257.956C257.926 113.349 257.244 110.546 255.911 108.091C254.578 105.606 252.714 103.652 250.32 102.227C247.956 100.803 245.199 100.091 242.047 100.091C238.684 100.091 235.729 100.909 233.184 102.546C230.638 104.152 228.653 106.273 227.229 108.909C225.835 111.515 225.123 114.379 225.093 117.5V127.182C225.093 131.243 225.835 134.727 227.32 137.637C228.805 140.515 230.881 142.727 233.547 144.273C236.214 145.788 239.335 146.546 242.911 146.546C245.305 146.546 247.472 146.212 249.411 145.546C251.35 144.849 253.032 143.834 254.456 142.5C255.881 141.167 256.956 139.515 257.684 137.546L273.047 139.273C272.078 143.334 270.229 146.879 267.502 149.909C264.805 152.909 261.35 155.243 257.138 156.909C252.926 158.546 248.108 159.364 242.684 159.364Z" fill="white"/>
<path d="M153.569 117.091V158H137.115V64.9092H153.205V100.046H154.024C155.66 96.1062 158.19 93.0001 161.615 90.7274C165.069 88.4243 169.463 87.2728 174.796 87.2728C179.645 87.2728 183.872 88.288 187.478 90.3183C191.084 92.3486 193.872 95.3183 195.842 99.2274C197.842 103.136 198.842 107.909 198.842 113.546V158H182.387V116.091C182.387 111.394 181.175 107.743 178.751 105.136C176.357 102.5 172.993 101.182 168.66 101.182C165.751 101.182 163.145 101.818 160.842 103.091C158.569 104.333 156.781 106.136 155.478 108.5C154.205 110.864 153.569 113.727 153.569 117.091Z" fill="white"/>
<path d="M53.0909 79.0455V64.9092H127.364V79.0455H98.5909V158H81.8636V79.0455H53.0909Z" fill="white"/>
<path d="M577.018 294.455C575.715 298.151 573.989 301.318 571.837 303.954C569.686 306.621 567.049 308.651 563.928 310.045C560.837 311.469 557.14 312.182 552.837 312.182C550.594 312.182 548.518 312 546.609 311.636C544.731 311.303 543.23 310.908 542.109 310.454L545.928 297.636C548.322 298.333 550.458 298.666 552.337 298.636C554.216 298.606 555.867 298.015 557.291 296.864C558.746 295.742 559.973 293.863 560.973 291.227L562.383 287.454L555.989 269.457C557.524 268.11 558.489 266.155 558.543 264.005L559.346 232.002L570.609 268.909L571.337 268.909L587.473 216.182L604.973 216.181L577.018 294.455ZM544.297 233.771L540.963 227.156L537.065 216.182L544.739 216.182L544.297 233.771Z" fill="white"/>
<path d="M509.593 215.272C513.038 215.272 516.163 215.802 518.973 216.855L533.502 245.678L533.502 285.999L517.047 285.999L517.048 244.09C517.048 239.424 515.836 235.773 513.412 233.136C511.018 230.5 507.699 229.181 503.456 229.181C500.578 229.181 498.017 229.818 495.775 231.091C493.563 232.333 491.821 234.136 490.548 236.5C489.306 238.864 488.684 241.727 488.684 245.091L488.684 286L472.229 286L472.23 216.181L487.957 216.182L487.957 228.045L488.775 228.046C490.381 224.137 492.942 221.03 496.457 218.727C500.002 216.424 504.381 215.272 509.593 215.272Z" fill="white"/>
<path d="M455.55 223.761C456.572 224.924 457.476 226.23 458.259 227.681C459.955 230.771 460.804 234.635 460.804 239.271V285.999H444.986V276.408H444.44C443.44 278.348 442.031 280.166 440.213 281.863C438.425 283.53 436.167 284.878 433.44 285.908C430.743 286.908 427.576 287.408 423.94 287.408C419.516 287.408 415.531 286.621 411.986 285.045C408.471 283.439 405.682 281.075 403.622 277.954C401.592 274.833 400.577 270.984 400.577 266.408C400.577 262.469 401.304 259.211 402.759 256.636C404.213 254.06 406.198 252 408.713 250.454C411.228 248.909 414.061 247.742 417.213 246.954C420.394 246.136 423.683 245.544 427.077 245.181C431.168 244.756 434.486 244.378 437.031 244.045C439.576 243.681 441.425 243.135 442.577 242.408C443.759 241.651 444.349 240.484 444.349 238.908V238.636C444.349 235.528 443.51 233.059 441.838 231.225L455.55 223.761ZM444.395 252.727C443.88 253.151 443.001 253.545 441.759 253.908C440.546 254.272 439.183 254.591 437.668 254.863C436.153 255.136 434.653 255.378 433.168 255.59C431.683 255.802 430.395 255.984 429.304 256.136C426.85 256.469 424.652 257.015 422.713 257.772C420.774 258.53 419.243 259.591 418.122 260.954C417.001 262.287 416.44 264.015 416.44 266.136C416.44 269.166 417.547 271.454 419.759 272.999C421.971 274.544 424.789 275.317 428.213 275.317C431.516 275.317 434.38 274.666 436.804 273.363C439.229 272.03 441.092 270.272 442.395 268.09C443.728 265.908 444.395 263.53 444.395 260.954V252.727ZM432.456 215.272L427.365 223.038C426.227 224.774 425.89 226.844 426.314 228.768C425.046 229.194 423.921 229.77 422.94 230.499C420.607 232.257 419.031 234.333 418.213 236.727L402.849 234.545C404.061 230.302 406.061 226.757 408.849 223.908C411.637 221.029 415.047 218.878 419.077 217.454C423.107 216 427.561 215.272 432.44 215.271C432.445 215.271 432.451 215.272 432.456 215.272Z" fill="white"/>
<path d="M328.97 312.182V216.182H345.151V227.727H346.106C346.954 226.03 348.151 224.227 349.697 222.318C351.242 220.379 353.333 218.727 355.97 217.363C358.606 215.969 361.97 215.272 366.061 215.272C371.454 215.272 376.318 216.651 380.651 219.409C385.015 222.136 388.47 226.182 391.015 231.545C393.591 236.879 394.879 243.424 394.879 251.182C394.879 258.848 393.621 265.363 391.106 270.727C388.591 276.091 385.167 280.182 380.833 283C376.5 285.818 371.591 287.227 366.106 287.227C362.106 287.227 358.788 286.56 356.151 285.227C353.515 283.894 351.394 282.288 349.788 280.409C348.212 278.5 346.985 276.697 346.106 275H345.424V312.182H328.97ZM345.106 251.091C345.106 255.606 345.742 259.56 347.015 262.954C348.318 266.348 350.182 269 352.606 270.909C355.061 272.788 358.03 273.727 361.515 273.727C365.151 273.727 368.197 272.757 370.651 270.818C373.106 268.848 374.954 266.166 376.197 262.772C377.47 259.348 378.106 255.454 378.106 251.091C378.106 246.757 377.485 242.909 376.242 239.545C375 236.182 373.151 233.545 370.697 231.636C368.242 229.727 365.182 228.772 361.515 228.772C358 228.772 355.015 229.697 352.561 231.545C350.106 233.394 348.242 235.985 346.97 239.318C345.727 242.651 345.106 246.575 345.106 251.091Z" fill="white"/>
<path d="M219.215 286V216.182H234.942V228.045H235.76C237.215 224.045 239.624 220.924 242.987 218.682C246.351 216.409 250.366 215.272 255.033 215.272C259.76 215.272 263.745 216.424 266.987 218.727C270.26 221 272.563 224.106 273.896 228.045H274.624C276.169 224.166 278.775 221.075 282.442 218.772C286.139 216.439 290.518 215.272 295.578 215.272C302.002 215.272 307.245 217.303 311.305 221.363C315.366 225.424 317.396 231.348 317.396 239.136V286H300.896V241.682C300.896 237.348 299.745 234.182 297.442 232.182C295.139 230.151 292.321 229.136 288.987 229.136C285.018 229.136 281.912 230.379 279.669 232.863C277.457 235.318 276.351 238.515 276.351 242.454V286H260.215V241C260.215 237.394 259.124 234.515 256.942 232.363C254.79 230.212 251.972 229.136 248.487 229.136C246.124 229.136 243.972 229.742 242.033 230.954C240.093 232.136 238.548 233.818 237.396 236C236.245 238.151 235.669 240.666 235.669 243.545V286H219.215Z" fill="white"/>
<path d="M176.914 287.363C170.096 287.363 164.187 285.863 159.187 282.863C154.187 279.863 150.308 275.666 147.55 270.272C144.823 264.879 143.46 258.575 143.46 251.363C143.46 244.151 144.823 237.833 147.55 232.409C150.308 226.985 154.187 222.772 159.187 219.772C164.187 216.772 170.096 215.272 176.914 215.272C183.732 215.272 189.641 216.772 194.641 219.772C199.641 222.772 203.505 226.985 206.232 232.409C208.99 237.833 210.369 244.151 210.369 251.363C210.369 258.575 208.99 264.879 206.232 270.272C203.505 275.666 199.641 279.863 194.641 282.863C189.641 285.863 183.732 287.363 176.914 287.363ZM177.005 274.182C180.702 274.182 183.793 273.166 186.278 271.136C188.763 269.075 190.611 266.318 191.823 262.863C193.066 259.409 193.687 255.56 193.687 251.318C193.687 247.045 193.066 243.182 191.823 239.727C190.611 236.242 188.763 233.469 186.278 231.409C183.793 229.348 180.702 228.318 177.005 228.318C173.217 228.318 170.066 229.348 167.55 231.409C165.066 233.469 163.202 236.242 161.96 239.727C160.747 243.182 160.141 247.045 160.141 251.318C160.141 255.56 160.747 259.409 161.96 262.863C163.202 266.318 165.066 269.075 167.55 271.136C170.066 273.166 173.217 274.182 177.005 274.182Z" fill="white"/>
<path d="M136.864 224.318H119.864C119.379 221.53 118.485 219.06 117.182 216.909C115.879 214.727 114.258 212.879 112.318 211.364C110.379 209.848 108.167 208.712 105.682 207.954C103.227 207.167 100.576 206.773 97.7273 206.773C92.6667 206.773 88.1818 208.045 84.2727 210.591C80.3636 213.106 77.303 216.803 75.0909 221.682C72.8788 226.53 71.7727 232.454 71.7727 239.454C71.7727 246.576 72.8788 252.576 75.0909 257.454C77.3333 262.303 80.3939 265.97 84.2727 268.454C88.1818 270.909 92.6515 272.136 97.6818 272.136C100.47 272.136 103.076 271.773 105.5 271.045C107.955 270.288 110.152 269.182 112.091 267.727C114.061 266.273 115.712 264.485 117.045 262.364C118.409 260.242 119.348 257.818 119.864 255.091L136.864 255.182C136.227 259.606 134.848 263.757 132.727 267.636C130.636 271.515 127.894 274.939 124.5 277.909C121.106 280.848 117.136 283.151 112.591 284.818C108.045 286.454 103 287.273 97.4545 287.273C89.2727 287.273 81.9697 285.379 75.5455 281.591C69.1212 277.803 64.0606 272.333 60.3636 265.182C56.6667 258.03 54.8182 249.454 54.8182 239.454C54.8182 229.424 56.6818 220.848 60.4091 213.727C64.1364 206.576 69.2121 201.106 75.6364 197.318C82.0606 193.53 89.3333 191.636 97.4545 191.636C102.636 191.636 107.455 192.364 111.909 193.818C116.364 195.273 120.333 197.409 123.818 200.227C127.303 203.015 130.167 206.439 132.409 210.5C134.682 214.53 136.167 219.136 136.864 224.318Z" fill="white"/>
<path d="M614.089 60.4066L565.635 134.319L641.039 180.418L552.802 175.412L550.581 263.763L510.798 184.844L433.173 227.096L481.627 153.184L406.224 107.085L494.461 112.091L496.681 23.7402L536.464 102.659L614.089 60.4066Z" fill="#FFB112"/>
</g>
<defs>
<clipPath id="clip0_273_115">
<rect width="687" height="338" fill="white"/>
</clipPath>
</defs>
</svg>
